<svg xmlns="http://www.w3.org/2000/svg" viewBox="0 0 15.49 15.2"><title>Asset 2</title><g id="Layer_2" data-name="Layer 2"><g id="Capa_1" data-name="Capa 1"><path d="M9.49,0H5.82A2.19,2.19,0,0,0,3.64,2.18V3.32A4,4,0,0,0,0,7.3v3.9a4,4,0,0,0,4,4H11.5a4,4,0,0,0,1.93-.5l0,0a4,4,0,0,0,2-3.48V7.3a4,4,0,0,0-3.81-4V2.18A2.19,2.19,0,0,0,9.49,0ZM14.6,11.2a3.09,3.09,0,0,1-.95,2.24V5.06A3.09,3.09,0,0,1,14.6,7.3ZM.89,7.3A3.08,3.08,0,0,1,1.89,5v8.46a3.1,3.1,0,0,1-1-2.28ZM9.49.89a1.3,1.3,0,0,1,1.3,1.29V3.3H9.84V2.67A1.28,1.28,0,0,0,8.55,1.39H6.76A1.28,1.28,0,0,0,5.48,2.67V3.3h-1V2.18A1.3,1.3,0,0,1,5.82.89Zm3.28,3.57a.15.15,0,0,0,0,.07V14a3.27,3.27,0,0,1-1.12.26V4.2A3.06,3.06,0,0,1,12.77,4.46Zm-8,9.85V4.19h6V14.31Zm-2-.25V4.53a.28.28,0,0,0,0-.09A3.27,3.27,0,0,1,3.9,4.19V14.3A3,3,0,0,1,2.78,14.06ZM9,3.3H6.36V2.67a.4.4,0,0,1,.4-.4H8.55a.4.4,0,0,1,.4.4Z" style="fill:#f3d347"/></g></g></svg>