<svg xmlns="http://www.w3.org/2000/svg" viewBox="0 0 13.67 17.8"><title>Asset 4</title><g id="Layer_2" data-name="Layer 2"><g id="Capa_1" data-name="Capa 1"><path d="M1.93,17.59a.45.45,0,0,0,.38.21h7.93a.44.44,0,0,0,.37-.2l2.09-3.06a.43.43,0,0,0,0-.46.45.45,0,0,0-.39-.23H5.09V13h8.14a.44.44,0,0,0,.44-.48A20.12,20.12,0,0,0,12.5,7.58C11.23,4.18,9.21,1.82,6.65.74A.45.45,0,0,0,6.39.66H5.09V.44A.44.44,0,0,0,4.65,0a.44.44,0,0,0-.44.44V13.85H.44a.43.43,0,0,0-.38.22.43.43,0,0,0,0,.45Zm4.88-7.18V1.79c2.82,1.44,4.33,4.43,5.13,6.9a17.5,17.5,0,0,1,.47,1.72c.17.7.26,1.29.32,1.67H6.81ZM5.09,1.54h.83V12.08H5.09Zm6.4,13.2L10,16.91H2.56L1.23,14.74Z" style="fill:#f3d347"/></g></g></svg>