<svg xmlns="http://www.w3.org/2000/svg" viewBox="0 0 19.12 20.51"><defs><style>.cls-1{fill:#5a5858;fill-rule:evenodd;}</style></defs><title>Asset 2</title><g id="Layer_2" data-name="Layer 2"><g id="Layer_1-2" data-name="Layer 1"><path class="cls-1" d="M4,16.42c.24-.52.48-1,.69-1.51s.45-1.13.62-1.7A36.93,36.93,0,0,0,6.41,8.45c.18-1,.32-2.09.48-3.13a.65.65,0,0,1,0-.11L7,5.39,9.77,9.27l.3.44a.16.16,0,0,1,0,.09c0,1.06,0,2.12,0,3.17a30.44,30.44,0,0,1-.41,3.8.46.46,0,0,0,0,.09Z"/><path class="cls-1" d="M1.21,18.69H3.34l7,0c.39,0,.78,0,1.18,0l4.08-.22c.57,0,1.13-.1,1.69-.16l0,0a5.19,5.19,0,0,0-1.64,1.06q-.36.32-.75.6a2.67,2.67,0,0,1-1.57.53c-.5,0-1,0-1.51,0l-1.85,0a35,35,0,0,1-3.69-.11,8.54,8.54,0,0,1-2.43-.63L1.25,18.7Z"/><path class="cls-1" d="M11.06,6.82l.78,1,.57.74a.49.49,0,0,1,.1.22c.06.25.12.5.16.76a.48.48,0,0,0,.28.34c.26.14.52.28.77.43a.46.46,0,0,1,.16.15l5,6.44L19,17l-.62-.23-4.49-1.67a.19.19,0,0,1-.14-.15l-2.11-6.4-.54-1.64a.49.49,0,0,1,0-.11Z"/><path class="cls-1" d="M11.13,1.56q3.81,6.62,7.64,13.22h0c-.19-.24-.38-.48-.58-.71a19.79,19.79,0,0,0-3.78-3.59c-.43-.3-.9-.55-1.34-.83a.19.19,0,0,1-.1-.14c-.14-.56-.26-1.12-.39-1.68l-.69-3-.75-3.27v0Z"/><path class="cls-1" d="M0,16.64A20.16,20.16,0,0,0,2.16,8.56l.3.48.63,1a.36.36,0,0,1,.06.2v6.18c0,.14,0,.35-.13.43a.15.15,0,0,1-.1,0l-1.71-.15-1-.09Z"/><path class="cls-1" d="M10.13.62V.88c0,1.46,0,2.92,0,4.38,0,1,0,1.92,0,2.88a4.24,4.24,0,0,1-.08.58l-.06,0C9,7.2,8.06,5.75,7.22,4.21c-.14-.26-.15-.17,0-.39L10,.69,10.1.61Z"/><path class="cls-1" d="M15.58,17.47l-1.23-.22c-.68-.13-1.35-.26-2-.37a.14.14,0,0,1-.12-.14c-.22-1.5-.44-3-.67-4.51-.16-1.08-.34-2.16-.5-3.25,0-.2-.06-.4-.08-.6l.46.88c.1.21.2.42.31.62a10.06,10.06,0,0,1,.7,1.85c.38,1.14.76,2.28,1.13,3.43a.33.33,0,0,0,.24.23l.82.3a.24.24,0,0,1,.12.1l.82,1.61S15.56,17.43,15.58,17.47Z"/><path class="cls-1" d="M.11,18.11a182.39,182.39,0,0,0,19-.65l0,0a8.24,8.24,0,0,1-2,.47c-1.71.21-3.43.29-5.15.35-3.21.1-6.43.09-9.64.07-.46,0-.93,0-1.39,0a1.55,1.55,0,0,1-.43-.07C.39,18.23.27,18.17.11,18.11Z"/><path class="cls-1" d="M10.67,17.83h-.32v-.41l0-5c0-1,0-1.94,0-2.91s0-2.15,0-3.22l0-5.94a1.93,1.93,0,0,1,0-.24s0-.09.05-.13h0a.79.79,0,0,1,.05.22c0,.3,0,.61,0,.91l0,6.62c0,1.92,0,3.83,0,5.74,0,1.39,0,2.77,0,4.16Z"/><path class="cls-1" d="M3.55,18H3.36V10a.59.59,0,0,1,.08-.37h0a2.17,2.17,0,0,1,.07.24c0,.12,0,.25,0,.37V18Z"/><path class="cls-1" d="M3.8,11a3.66,3.66,0,0,1,.32.62C4.06,12.92,4,13.56,4,14.79a.88.88,0,0,1-.2.22s0-.09,0-.2V11Z"/></g></g></svg>