<svg xmlns="http://www.w3.org/2000/svg" xmlns:xlink="http://www.w3.org/1999/xlink" viewBox="0 0 564.77 472.08"><defs><clipPath id="clip-path" transform="translate(-47.15)"><rect y="34.44" width="578.68" height="391.5" style="fill:none"/></clipPath></defs><title>Asset 2</title><g style="isolation:isolate"><g id="Layer_2" data-name="Layer 2"><g id="Capa_1" data-name="Capa 1"><circle cx="198.59" cy="198.59" r="198.59" style="fill:#a4d2fa"/><g style="clip-path:url(#clip-path)"><polygon points="114.38 313.8 121.03 310.85 116.75 304.38 115.73 289.92 119.7 283.33 127.46 296.73 126.52 313.82 127.46 337.21 113.66 341.85 114.38 313.8" style="fill:#e1e3e7"/><polygon points="131.97 400.73 201.64 353.38 175.03 346.12 175.03 339.27 142.03 332.01 78.57 353.85 93.81 377.23 131.97 400.73" style="fill:#d2d6dd"/><path d="M161.79,369.12l10.86-4.38c0-.27,12.48,9.4,25.9.65L222,348.16l27.39,7.67-70.25,44.9-39.35-25.86S159.06,378.7,161.79,369.12Z" transform="translate(-47.15)" style="fill:#aab2b8;opacity:0.2;mix-blend-mode:multiply"/><path d="M197.18,288.19l9.29-5.21,40.73,7.25s.74,55.65.71,56.26-49.76-12.38-49.76-12.38Z" transform="translate(-47.15)" style="fill:#c6cedc"/><path d="M145.73,196.59s3.17-25.38-9.55-27.07a2.38,2.38,0,0,1,.84-.77l9.53-.57,7.52,28.41Z" transform="translate(-47.15)" style="fill:#003967"/><polygon points="58.43 195.02 49.62 197.27 47.38 200.12 78.31 201.88 117.74 200.81 140.94 198.88 133.32 194.82 58.43 195.02" style="fill:#a7bde1"/><path d="M152.61,199.49l-19.81.09a2,2,0,0,1-2-1.6l0-.09a2,2,0,0,1,2-2.33H152.6a2,2,0,0,1,2,2.26h0A2,2,0,0,1,152.61,199.49Z" transform="translate(-47.15)" style="fill:#e6e3e8"/><path d="M198.55,296.39a2.12,2.12,0,0,0-.32-1.1c-1.31-2.2-6.47-3.84-12.63-3.84s-11.32,1.64-12.63,3.84a2.12,2.12,0,0,0-.32,1.1v67.79h0c0,2.73,5.8,4.94,12.95,4.94s13-2.21,13-4.94h0Z" transform="translate(-47.15)" style="fill:#dfdee1"/><path d="M198.55,300.14c0,2.94-5.8,5.32-13,5.32s-13-2.38-13-5.32v2.61h0c0,2.94,5.81,5.32,13,5.32s13-2.38,13-5.32h0v-2.61Z" transform="translate(-47.15)" style="fill:#563f38"/><path d="M198.55,296.53c0,2.94-5.8,5.31-13,5.31s-13-2.37-13-5.31v2.61h0c0,2.94,5.81,5.31,13,5.31s13-2.37,13-5.31h0v-2.61Z" transform="translate(-47.15)" style="fill:#081f3b"/><path d="M170.08,292.91l19.66.46c-.52-13.73-6.49-20.24-12.44-19.14-4.43.81-6.88,2.2-10.45,11C168.78,289.33,170.08,292.91,170.08,292.91Z" transform="translate(-47.15)" style="fill:#d5cfcf"/><polygon points="61.24 361.64 78.57 353.85 85.95 365.02 85.95 369.26 61.24 361.64" style="fill:#b0b0b0"/><polygon points="78.57 353.85 86.2 365.5 85.26 281.73 74.98 281.73 74.98 335.71 78.57 338.65 78.57 353.85" style="fill:#e3e2e7"/><polygon points="28.11 292.31 38.9 288.95 39.21 294.13 28.11 292.31" style="fill:#dde1e2"/><path d="M94.8,295.35l-10.57-1.84s.64-22.65,9.25-31.38L95.29,264h1.48l-.11-59.49,28.8,1.76,40.21-1.09,20.86-1.78v58.52s5.49-1.14,10.65,26.32l4.18.89-11.62,4.29s-.13-18.09-10.8-19.12-16.85,21.28-15.34,30.1L161,307l.15,4.25s-7.18,8.11-28.74.72c0,0,.76-24.29-15.25-32.48S94.8,286.28,94.8,295.35Z" transform="translate(-47.15)" style="fill:#d8dbe3"/><path d="M132.45,311.93s.67-24.11-15.25-32.48c-15.52-8.16-21.66,6.84-22.4,15.9L83,293.51s0-18.43,10.49-31.38L95.29,264h1.48l-.11-59.49,28.8,1.76,37.13-1.36,1,1.57L165.67,267l-5.83,8.33c-3.5,9.23-5.61,18.62-4.89,28.34V312H131.49" transform="translate(-47.15)" style="fill:#edecef"/><path d="M125.73,267c7.36,12.12,12.86,24.9,13.91,36.84,4.89,3.57,9.9,3.82,15.31.09.93-12.38,4-25.28,10.72-36.93V205.13H126.75Z" transform="translate(-47.15)" style="fill:#e6e6e8"/><path d="M147,306.47c-2.35-13-11.34-26.82-21.22-39.43,5.76,12.22,12.86,24.9,13.91,36.84a12.79,12.79,0,0,0,7.65,2.77C147.18,306.59,147.06,306.54,147,306.47Z" transform="translate(-47.15)" style="fill:#d7dadc"/><path d="M153.52,223.65h-1.58v44.07H137.67V223.65h-1a9.62,9.62,0,0,1,4.7-8.49,7.66,7.66,0,0,1,3.75-1C149.73,214.17,153.52,218.42,153.52,223.65Z" transform="translate(-47.15)" style="fill:#d2dce9"/><path d="M153.52,223.65h-1.58V263.9H141.32V215.16a7.66,7.66,0,0,1,3.75-1C149.73,214.17,153.52,218.42,153.52,223.65Z" transform="translate(-47.15)" style="fill:#c7c4c7"/><polygon points="99.78 138.75 98.12 138.75 98.12 137.49 96.15 137.49 96.15 138.75 94.89 138.75 94.89 134.41 96.15 134.41 96.15 132.44 94.89 132.44 94.89 131.38 92.26 131.38 92.26 132.44 91 132.44 91 134.41 92.26 134.41 92.26 138.75 91 138.75 91 137.49 89.03 137.49 89.03 138.75 87.65 138.75 87.65 141.39 89.03 141.39 89.03 142.65 91 142.65 91 141.39 92.26 141.39 92.26 148.38 91.5 148.38 91.5 150.35 95.65 150.35 95.65 148.38 94.89 148.38 94.89 141.39 96.15 141.39 96.15 142.65 98.12 142.65 98.12 141.39 99.78 141.39 99.78 138.75" style="fill:#ced1d1"/><polygon points="99.35 138.75 97.7 138.75 97.7 137.49 95.73 137.49 95.73 138.75 94.47 138.75 94.47 134.41 95.73 134.41 95.73 132.44 94.47 132.44 94.47 131.38 91.83 131.38 91.83 132.44 90.57 132.44 90.57 134.41 91.83 134.41 91.83 138.75 90.57 138.75 90.57 137.49 88.6 137.49 88.6 138.75 87.23 138.75 87.23 141.39 88.6 141.39 88.6 142.65 90.57 142.65 90.57 141.39 91.83 141.39 91.83 148.38 91.08 148.38 91.08 150.35 95.22 150.35 95.22 148.38 94.47 148.38 94.47 141.39 95.73 141.39 95.73 142.65 97.7 142.65 97.7 141.39 99.35 141.39 99.35 138.75" style="fill:#dbe1e6"/><path d="M105.5,197.23l21.92.61,3.29-37.58h0S106.23,163.84,105.5,197.23Z" transform="translate(-47.15)" style="fill:#0571b1"/><path d="M140.44,149c-8.22,3.5-11.38,10.68-14.5,17.88,10.23,2.45,20,3.1,29.63.4C151.5,157.77,146.51,151.22,140.44,149Z" transform="translate(-47.15)" style="fill:#1c80bf"/><path d="M108.55,296.44l-.15,72.28h0c0,3.07-6.09,5.57-13.6,5.57s-13.59-2.5-13.59-5.57h0V296.53Z" transform="translate(-47.15)" style="fill:#eaeced"/><path d="M108.55,302.54c0,3.08-6.12,5.57-13.67,5.57s-13.67-2.49-13.67-5.57v2.74h0c0,3.08,6.12,5.57,13.67,5.57s13.67-2.49,13.67-5.57h0v-2.74Z" transform="translate(-47.15)" style="fill:#9b7961"/><path d="M108.55,299.06c0,3.08-6.12,5.57-13.67,5.57s-13.67-2.49-13.67-5.57v2.74h0c0,3.08,6.12,5.57,13.67,5.57s13.67-2.49,13.67-5.57h0v-2.74Z" transform="translate(-47.15)" style="fill:#031f3b"/><path d="M94.8,295.35c1.34-13.08,8-19.07,15.27-18.47a15.2,15.2,0,0,1,4.52,1.37c-2.92,2.9-5.06,7.77-5.9,14.26Z" transform="translate(-47.15)" style="fill:#c9c5c4"/><path d="M108.71,292.37h0" transform="translate(-47.15)" style="fill:#c9c5c4"/><path d="M119.38,221.79h-.18c0-5.21-3.81-9.43-8.47-9.43s-8.43,4.22-8.46,9.43H102V223h1.4v41.62l14.4,2.73V223h1.54Z" transform="translate(-47.15)" style="fill:#d2d0d1"/><path d="M119.2,221.86c0-5.24-3.79-9.5-8.47-9.5s-8.46,4.26-8.46,9.5Z" transform="translate(-47.15)" style="fill:#cdc7c2"/><polygon points="56.29 264.62 69.81 263.43 70.69 263.43 70.69 267.35 56.29 264.62" style="fill:#cfcbcd"/><rect x="90.52" y="263.73" width="14.27" height="3.99" style="fill:#d4cdcd"/><path d="M180.94,221.86c0-5.08-2.12-9.2-4.73-9.2s-4.72,4.12-4.72,9.2h1v43.66l7.95-2.76v-40.9Z" transform="translate(-47.15)" style="fill:#d3d1d4"/><polygon points="133.28 262.76 125.34 261.87 125.34 265.52 133.28 262.76" style="fill:#bfbab9"/><polygon points="49.5 259.4 49.5 204.22 47.38 204.11 47.38 259.4 46.32 258.34 46.32 262.13 48.14 263.96 49.62 263.96 49.62 259.4 49.5 259.4" style="fill:#6d3e30"/><path d="M187.84,258.33l.26-55.46-2.86.2.14,57.72-.21.21.07,2.12,2.31-2.3,2.07-2.07v-2.2Z" transform="translate(-47.15)" style="fill:#221618"/><polygon points="80.88 264.92 77.78 264.92 78.31 205.87 81.42 205.8 80.88 264.92" style="fill:#241918"/><polygon points="119.7 263.97 116.67 263.97 115.44 204.86 118.91 204.7 119.7 263.97" style="fill:#4a3630"/><rect x="76.77" y="264.92" width="5.66" height="3.07" style="fill:#552d27"/><rect x="115.69" y="263.97" width="5.66" height="3.07" style="fill:#413635"/><path d="M147.63,306.78a91.5,91.5,0,0,1,18-39.74c-7,12.12-9.6,25.21-10.72,37.15a12.84,12.84,0,0,1-7.66,2.77A3.65,3.65,0,0,0,147.63,306.78Z" transform="translate(-47.15)" style="fill:#e0e0e2"/><path d="M155,304c0,.13-7.66-2.69-7.66-2.69l-7.65,2.78v.09c4.89,3.56,9.9,3.81,15.31.08,0,0,0-.08,0-.13S155,304,155,304Z" transform="translate(-47.15)" style="fill:#d2d2d8"/><polygon points="61.24 341.08 78.57 333.92 78.57 338.65 61.24 346.1 61.24 341.08" style="fill:#d6dce3"/><polygon points="61.24 346.1 61.24 361.64 78.57 353.85 78.57 338.65 61.24 346.1" style="fill:#c3c7cc"/><polygon points="28.11 292.31 29.84 295.76 47.65 299.69 47.65 295.35 28.11 292.31" style="fill:#ab9d91"/><polygon points="47.65 295.35 62.32 292.35 63.02 293.74 61.39 296.44 47.65 299.69 47.65 295.35" style="fill:#3a2129"/><path d="M144.4,160.71,144,169s9.64,10.58,8.89,30.48l7.56.63S164.7,167.5,144.4,160.71Z" transform="translate(-47.15)" style="fill:#058bb9"/><path d="M106.33,199.21l21.16.91s-2.14-37,9.39-38.49h-7.66S107.06,165.83,106.33,199.21Z" transform="translate(-47.15)" style="fill:#0084bc"/><path d="M160.46,200.12c0,.49,15.77-1.5,15.77-1.5s1-32-24.86-37.55l-7-.36S162.6,164.27,160.46,200.12Z" transform="translate(-47.15)" style="fill:#0571b1"/><path d="M127.49,200.12l4.93-.54s-.59-26.66,4.6-30.83l-.14-7.12S125.94,159.66,127.49,200.12Z" transform="translate(-47.15)" style="fill:#035b92"/><polygon points="78.31 205.87 47.38 204.11 47.38 200.12 78.31 201.88 78.31 205.87" style="fill:#855d3c"/><polygon points="140.94 202.87 117.74 204.8 117.74 200.81 140.94 198.88 140.94 202.87" style="fill:#645143"/><polygon points="117.74 204.79 78.31 205.88 78.31 201.9 117.74 200.81 117.74 204.79" style="fill:#423123"/><path d="M108.58,293.39c.73-7.09,2.92-12.07,6-15.14a14.91,14.91,0,0,0-4.52-1.37c-7.44-.59-13.93,5.39-15.27,18.47v61.76l13.6,4.69Z" transform="translate(-47.15)" style="fill:#c9c5c4;opacity:0.5;mix-blend-mode:multiply"/><path d="M163.6,304.35l-31.15,4.82.66,60.09h0c0,3.21,6.35,6.76,14.18,6.76s14.18-3.55,14.18-6.76h0l-.05-62.5Z" transform="translate(-47.15)" style="fill:#edecef"/><path d="M163.65,304.32l-16.27,2.58.5,68.47h0l0,.65c8.78-.17,13.7-3.85,13.7-6.78h0l-.06-62.5Z" transform="translate(-47.15)" style="fill:#d8dbe3"/><path d="M161.53,312.73c0,3.29-6.51,6-14.54,6s-14.53-2.67-14.54-6v2.92h0c0,3.3,6.51,6,14.54,6s14.54-2.67,14.54-6h0v-2.93Z" transform="translate(-47.15)" style="fill:#9b7961"/><path d="M161.53,309c0,3.3-6.51,6-14.54,6s-14.53-2.66-14.54-6v2.93h0c0,3.29,6.51,6,14.54,6s14.54-2.67,14.54-6h0V309Z" transform="translate(-47.15)" style="fill:#031f3b"/><polygon points="100.14 305.24 116.75 301.92 116.75 304.38 100.14 307.89 100.14 305.24" style="fill:#baaa9b"/><polygon points="100.14 305.24 83.77 302.71 84.92 305.69 100.14 307.89 100.14 305.24" style="fill:#92847b"/><path d="M172.65,296.39l-2.57-3.48-.57-1.34,19.92,3.33,11.27-4.28-2.15,5.91S184.11,303.38,172.65,296.39Z" transform="translate(-47.15)" style="fill:#dfdee1"/><path d="M168.14,288.31s19.07,2.3,21.6,5.06l-.69,3.36s-13.06-4.63-19-3.82Z" transform="translate(-47.15)" style="fill:#ab8465"/><path d="M189.05,296.73s5.74-3.82,11.12-4.9l1.19-2.75-11.62,4.29Z" transform="translate(-47.15)" style="fill:#61514d"/><polygon points="174.47 306.22 202.22 296.73 202.22 355.83 174.83 348.16 174.47 306.22" style="fill:#d2d7e0"/><path d="M299.15,443.06s-4.73-65.29,2.26-76.69l134.1,28.75,8.18-11.5,1.45-5.77h20l-10.85,66.23Z" transform="translate(-47.15)" style="fill:#cdd4df"/><rect x="384.32" y="144.83" width="14.73" height="10.69" style="fill:#dfe0e4"/><path d="M512.25,48.09v5.2a6,6,0,0,1,5.2,3.37l-11.68,1.55a7.57,7.57,0,0,1,4.84-4.37l.09-5.39h-.82V46.08h.72V41.89h1.64v4.46h.55v1.73Z" transform="translate(-47.15)" style="fill:#e2e4ea"/><path d="M450.61,104.58a73.47,73.47,0,0,1,134.32-7.86Z" transform="translate(-47.15)" style="fill:#007caf"/><path d="M540.67,66.85a57.7,57.7,0,0,1,23.52,5,73.46,73.46,0,0,0-113.58,32.75l36.66-2.15A57.84,57.84,0,0,1,540.67,66.85Z" transform="translate(-47.15)" style="fill:#1f8dc8"/><polygon points="492.25 95.88 397.2 105.19 397.2 152.12 492.25 152.12 492.25 95.88" style="fill:#ebebf0"/><rect x="492.25" y="95.88" width="37.64" height="56.24" style="fill:#d7dae4"/><rect x="492.25" y="95.15" width="37.64" height="1.11" style="fill:#c8cdd6"/><polygon points="395.77 103.58 395.77 105.31 492.25 96 492.25 94.27 395.77 103.58" style="fill:#dedfe2"/><rect x="385.05" y="145.52" width="1.79" height="1.9" style="fill:#9bb0b6"/><rect x="391.89" y="148.43" width="1.69" height="2.15" style="fill:#9ba4a9"/><path d="M466.13,121.86c0-3.86-2.39-6.55-5.35-6.55s-5,3.14-5,7a.06.06,0,0,0,0,0h0v26l10.31.14V121.9h0Z" transform="translate(-47.15)" style="fill:#e7e6eb"/><path d="M517.23,120.54c0-4-3.9-6.85-8.7-6.85s-8.7,3.28-8.7,7.32c0,0,0,0,0,0h0v27.22l17.4.15V120.58h0S517.23,120.55,517.23,120.54Z" transform="translate(-47.15)" style="fill:#e6e5e8"/><path d="M501.84,148.28V121.06h0v0c0-3.77,3.38-6.87,7.72-7.27-.34,0-.68,0-1,0-4.8,0-8.7,3.28-8.7,7.32,0,0,0,0,0,0h0v27.22l17.4.15h0Z" transform="translate(-47.15)" style="fill:#d5d5d5"/><rect x="454.72" y="120.59" width="14.78" height="27.84" style="fill:#31809c"/><path d="M462.77,148.36v-26h0v0a8.5,8.5,0,0,1,1.65-5.32,4.85,4.85,0,0,0-3.64-1.68c-2.95,0-5,3.14-5,7a.06.06,0,0,0,0,0h0v26l10.31.14v-.1Z" transform="translate(-47.15)" style="fill:#dcdcdc"/><rect x="456.95" y="122.61" width="10.31" height="23.79" style="fill:#3e8db9"/><polygon points="418.76 148.47 415.61 148.47 415.61 123.56 418.98 123.15 418.76 148.47" style="fill:#31809c"/><rect x="395.14" y="150.58" width="134.75" height="39.39" style="fill:#e4e6ea"/><path d="M564.65,183.37c-15-20.52-40.16-30.57-61.32-29.86-51.58,1.74-90.52,67.86-77.27,91.6,17.6,31.52,141.06,13.13,151.06-26C580.66,205.23,569.64,190.18,564.65,183.37Z" transform="translate(-47.15)" style="fill:#dcdde1"/><polygon points="388.36 348.81 388.36 395.12 175.15 350.14 175.62 307.81 227.09 317.74 200.64 296.77 201.33 218.07 313.91 233.81 313.91 333.22 388.36 348.81" style="fill:#e8e8ea"/><polygon points="201.33 218.07 229.17 227.76 229.17 318.73 200.64 296.77 201.33 218.07" style="fill:#dde0e8"/><path d="M327.59,272.54a11.56,11.56,0,0,0-23.11,0v.07h0v46.16l23.11,4.61V272.61h0S327.59,272.57,327.59,272.54Z" transform="translate(-47.15)" style="fill:#e7e6e9"/><polygon points="418.93 312.04 427.85 300.88 428.13 276.42 418.25 276.42 418.93 312.04" style="fill:#c3cbd9"/><polygon points="428.13 276.42 428.26 237.61 418.04 237.61 418.25 276.42 428.13 276.42" style="fill:#ccd7e5"/><path d="M445.14,377.85s8.94,6.27,17.61,4.86L475,345.38v-44.5l-17.4,27.66Z" transform="translate(-47.15)" style="fill:#b1b9cc"/><rect x="346.8" y="154.32" width="48.35" height="35.66" style="fill:#d0d3d9"/><path d="M510.47,189.92c0-4.28-4.21-7.25-9.41-7.25s-9.4,3.47-9.4,7.75v.05h0v31l18.81,2.6V190h0A.43.43,0,0,0,510.47,189.92Z" transform="translate(-47.15)" style="fill:#d6d6d8"/><path d="M495.61,194.42h0v0c0-4.29,4.21-7.76,9.4-7.76a11.92,11.92,0,0,1,5,1.07c-1.18-3.05-4.76-5-9-5-5.19,0-9.4,3.47-9.4,7.75v.05h0v31l3.95.55Z" transform="translate(-47.15)" style="fill:#c2c2c6"/><polygon points="401.68 233.21 401.68 331.87 388.36 348.81 388.36 395.12 396.53 383.62 410.45 328.54 418.93 316.43 417.89 224.56 401.68 233.21" style="fill:#bfc6d5"/><polygon points="418.93 312.04 429.22 299.18 429.22 304.03 418.93 316.43 418.93 312.04" style="fill:#a1aec2"/><rect x="448.45" y="193.1" width="14.86" height="28.66" style="fill:#2e759f"/><polygon points="175.62 307.81 200.64 296.77 227.09 317.74 175.62 307.81" style="fill:#d2d7e0"/><polygon points="313.91 333.22 401.68 331.87 388.36 348.81 313.91 333.22" style="fill:#c9ceda"/><polygon points="313.91 333.22 313.91 233.81 401.68 233.21 401.68 331.87 313.91 333.22" style="fill:#e0e0e2"/><path d="M417,276.34a12.68,12.68,0,0,0-25.34,0s0,.05,0,.07h0v51.64H417V276.41h0S417,276.36,417,276.34Z" transform="translate(-47.15)" style="fill:#d6d9dd"/><polygon points="344.85 328.13 369.79 328.13 359.37 322.33 344.85 322.33 344.85 328.13" style="fill:#c9cdd7"/><path d="M311,274.19h0v-.07A11.54,11.54,0,0,1,321.9,262.6a11.54,11.54,0,0,0-17.42,9.94v.07h0v46.16l6.54,1.31Z" transform="translate(-47.15)" style="fill:#d9d8df"/><path d="M265.54,259.78c.17-6-1.93-11-3.83-11.06s-3.07,4.82-3.24,10.87v.07h0l-.18,39.17,6.95,4.68.29-43.66h0S265.54,259.81,265.54,259.78Z" transform="translate(-47.15)" style="fill:#d3d6de"/><rect x="344.46" y="274.69" width="15.55" height="47.81" style="fill:#cfd2d6"/><path d="M180.83,396.52c24-20.7,47-31.15,61.67-40.09a177.18,177.18,0,0,1,21.84-11.62c15.33-6.8,30.17-13.38,47-11.33,10.65,1.29,17.66,5.58,31.24,14.1,10.92,6.85,27.09,19.69,42.54,36.91,0,0-25.2,35.14-32.39,38.18L180.83,396.52Z" transform="translate(-47.15)" style="fill:#bdc6d9"/><polygon points="257.32 318.77 263.79 315.78 280.43 318.77 280.43 323.38 257.32 318.77" style="fill:#d4d3da"/><polygon points="280.43 274.52 265.3 272.47 265.3 311.36 280.43 314.92 280.43 274.52" style="fill:#c0c7d4"/><polygon points="211.14 298.83 218.12 298.83 218.12 303.51 211.14 298.83" style="fill:#c7ced7"/><rect x="448.45" y="196.04" width="11.73" height="25.71" style="fill:#226283"/><polygon points="428.31 224.56 428.31 351.62 510.63 351.62 510.63 210.92 483.2 210.13 428.31 224.56" style="fill:#e0e3eb"/><polygon points="510.63 212.64 510.63 231.54 497.84 230.42 449.99 226.23 497.84 212.64 510.63 212.64" style="fill:#adadb9"/><path d="M504,156.85c21.23.3,45.34,19.16,59.4,32.57,4.82,4.6,11.54,16,12.8,27,1.65-13.09-8.19-26.7-12.8-33.08-14.84-20.52-39.65-30.57-60.53-29.86-45.65,1.56-81.26,54.86-78.71,83C433.55,210.13,461.48,156.24,504,156.85Z" transform="translate(-47.15)" style="fill:#dadee3"/><path d="M577.69,212.64h-5.32c-1.66-9.93-7.78-21-11.07-26-13.62-20.92-37.53-32.28-58.43-33.09l.35,0c21.16-.71,46.3,9.34,61.33,29.86C568.57,188.87,577,197.81,577.69,212.64Z" transform="translate(-47.15)" style="fill:#a5a7b7"/><polygon points="502.23 216.06 502.23 198.12 510.63 193.41 510.63 217.33 502.23 216.06" style="fill:#e0e0e2"/><path d="M362.8,121.25v-3.43h-5.87v-6h-4.2v6h-5.87v3.43h5.87v8.45h-.3a4.16,4.16,0,0,0-3.63,2.13l-1.47,2.67h15l-1.4-2.62a4.15,4.15,0,0,0-3.65-2.18h-.35v-8.45Z" transform="translate(-47.15)" style="fill:#eae9ee"/><polygon points="530.66 212.64 530.66 231.54 497.84 230.42 497.84 212.64 530.66 212.64" style="fill:#a7a4af"/><polygon points="428.31 224.56 449.18 229.65 449.18 355.07 427.85 355.07 428.31 224.56" style="fill:#e8e7ea"/><path d="M237.22,376.87c-23.11-1.53-43.18,6.91-57.05,20.46.33,1.78,2.33,5.69,6.75,9.15,3.86,3,63.85,10.23,110.35,15.42C292.74,398.16,268.12,378.92,237.22,376.87Z" transform="translate(-47.15)" style="fill:#e1e3e7"/><polygon points="530.33 352.74 449.32 352.74 449.18 229.65 530.33 231.54 530.33 352.74" style="fill:#e8e3e4"/><line x1="252.6" y1="394.18" x2="252.6" y2="443.06" style="fill:none;stroke:#131313;stroke-linecap:round;stroke-linejoin:round;stroke-width:0.747261369125215px"/><line x1="259.14" y1="396.45" x2="259.14" y2="442.72" style="fill:none;stroke:#131313;stroke-linecap:round;stroke-linejoin:round;stroke-width:0.747261369125215px"/><line x1="265.31" y1="390.28" x2="265.31" y2="443.06" style="fill:none;stroke:#131313;stroke-linecap:round;stroke-linejoin:round;stroke-width:0.747261369125215px"/><line x1="279.01" y1="403.99" x2="279.01" y2="442.72" style="fill:none;stroke:#131313;stroke-linecap:round;stroke-linejoin:round;stroke-width:0.747261369125215px"/><line x1="252.6" y1="405.25" x2="279.01" y2="416.06" style="fill:none;stroke:#131313;stroke-linecap:round;stroke-linejoin:round;stroke-width:0.747261369125215px"/><line x1="261.03" y1="393.43" x2="270.08" y2="396.82" style="fill:none;stroke:#131313;stroke-linecap:round;stroke-linejoin:round;stroke-width:0.747261369125215px"/><path d="M306.32,401c0-.57.73-1,1.2-1.09a1.69,1.69,0,0,1,2,.82c.34.56.45,1.94-.3,2.27-1,.42-1.82-1.38-.52-1.56" transform="translate(-47.15)" style="fill:none;stroke:#131313;stroke-linecap:round;stroke-linejoin:round;stroke-width:0.56044602684391px"/><path d="M305.94,400.71c-.41-.8-2.35-3.14-3.38-1.69-.45.63.15,1.62.82,1.8.95.24,1.16-1.12.36-.87" transform="translate(-47.15)" style="fill:none;stroke:#131313;stroke-linecap:round;stroke-linejoin:round;stroke-width:0.56044602684391px"/><path d="M319.7,406c.44-1.61,2.85-1,3.57,0s.35,2.5-1.06,2.23c-1.08-.21-.95-2.14-.07-1.57" transform="translate(-47.15)" style="fill:none;stroke:#131313;stroke-linecap:round;stroke-linejoin:round;stroke-width:0.56044602684391px"/><path d="M319.41,406c-.51-.94-3.15-4-4-1.76a1.48,1.48,0,0,0,1.59,1.91c1-.19.68-1.5-.28-1.47" transform="translate(-47.15)" style="fill:none;stroke:#131313;stroke-linecap:round;stroke-linejoin:round;stroke-width:0.56044602684391px"/><path d="M323.61,415.11c1.2,1.16,2.47,2.88,2.29,4.65-.14,1.38-2,1.26-2.4,0-.45-1.41,1.68-2.27,1.67-.69" transform="translate(-47.15)" style="fill:none;stroke:#131313;stroke-linecap:round;stroke-linejoin:round;stroke-width:0.56044602684391px"/><path d="M319.63,417.23c-1.64,6.34-3.86,10.68-7,11.8,3,2.34,5.14,7.69,7,14V402.23" transform="translate(-47.15)" style="fill:none;stroke:#131313;stroke-linecap:round;stroke-linejoin:round;stroke-width:0.747261369125215px"/><path d="M319.63,443.06c1.66-4.07,3.56-7.69,6.54-9.18-3-2.83-5.06-7.9-6.43-14.58" transform="translate(-47.15)" style="fill:none;stroke:#131313;stroke-linecap:round;stroke-linejoin:round;stroke-width:0.747261369125215px"/><path d="M306.3,413.2a32.77,32.77,0,0,0,6.32,15c-3.05.66-4.84,4.85-6.32,9.93-1.85-7.26-3.86-13.34-6.54-14.8A21.94,21.94,0,0,0,306.3,413.2Z" transform="translate(-47.15)" style="fill:none;stroke:#131313;stroke-linecap:round;stroke-linejoin:round;stroke-width:0.747261369125215px"/><path d="M315,411.68c-1.86,0-2.52,2.55-1.54,3.81.5.64,1.87,1.65,2.56.72.52-.69-.24-2.81-1.27-2.11" transform="translate(-47.15)" style="fill:none;stroke:#131313;stroke-linecap:round;stroke-linejoin:round;stroke-width:0.56044602684391px"/><path d="M306.53,411.13c-.34-.41.85-1.43,1.29-1.61a2.22,2.22,0,0,1,2.47,1.05c.61,1,1,2.77-.19,3.54a1.31,1.31,0,0,1-1.9-.58c-.32-.75.32-1.93,1.2-1.29" transform="translate(-47.15)" style="fill:none;stroke:#131313;stroke-linecap:round;stroke-linejoin:round;stroke-width:0.56044602684391px"/><path d="M306.07,411.48c-.13.06-.32-.91-.45-1.17a7.68,7.68,0,0,0-1.2-1.79,2.92,2.92,0,0,0-2.81-1.25c-1.7.42-1.38,2.81,0,3.46a1,1,0,0,0,1.42-.56c.36-.75-.37-1.74-1.15-1.11" transform="translate(-47.15)" style="fill:none;stroke:#131313;stroke-linecap:round;stroke-linejoin:round;stroke-width:0.56044602684391px"/><path d="M301,403.11c.53.35,1.35.35,1.07-.58-.19-.67-1.16-1.38-1.83-1-1,.67-.08,2.75.48,3.44.94,1.14,1.84,1,2.9,0a12.25,12.25,0,0,0,1.86-2.21,9.88,9.88,0,0,0,.76-1" transform="translate(-47.15)" style="fill:none;stroke:#131313;stroke-linecap:round;stroke-linejoin:round;stroke-width:0.56044602684391px"/><path d="M306.58,403.21a6.19,6.19,0,0,0,1.21,2.27c.38.57.74,1.15,1.11,1.72.48.73,1.29,1.85,2.37,1.53a2.07,2.07,0,0,0,1-2.66,1.41,1.41,0,0,0-1.57-.39c-.61.33-.28.9,0,1.31" transform="translate(-47.15)" style="fill:none;stroke:#131313;stroke-linecap:round;stroke-linejoin:round;stroke-width:0.56044602684391px"/><path d="M319.49,407.5c-.94,1.37-3.65,4.86-5.39,2.56-.55-.73-1.41-2.89.34-2.87a1.42,1.42,0,0,1,1.28,1.17.66.66,0,0,1-1.07.5" transform="translate(-47.15)" style="fill:none;stroke:#131313;stroke-linecap:round;stroke-linejoin:round;stroke-width:0.56044602684391px"/><path d="M319.94,408.4c.62,1.14,1.06,2.33,1.64,3.48a3.36,3.36,0,0,0,2.07,1.92c2.72.7,3-3.79.83-3.68-1.47.07-1.09,1.92.15,1.92" transform="translate(-47.15)" style="fill:none;stroke:#131313;stroke-linecap:round;stroke-linejoin:round;stroke-width:0.56044602684391px"/><path d="M306.36,438c-.69,1.34-.77,2.75-2.07,3.74a2.35,2.35,0,0,1-3.64-.69c-.87-1.31-.31-3.71,1.63-3.32,1.16.23,1.49,2.2.05,1.78" transform="translate(-47.15)" style="fill:none;stroke:#131313;stroke-linecap:round;stroke-linejoin:round;stroke-width:0.56044602684391px"/><path d="M306.52,437.85a3.22,3.22,0,0,0,.23,1.14,8.66,8.66,0,0,0,1.16,3.12c.54.76,1.71,1.57,2.67,1.06s1-2.71-.42-2.7a1.13,1.13,0,0,0-.84,1.74" transform="translate(-47.15)" style="fill:none;stroke:#131313;stroke-linecap:round;stroke-linejoin:round;stroke-width:0.56044602684391px"/><path d="M299.83,430v5.27l5,1.92v-5Zm2.38,4.48-1.31-.5v-1.37l1.31.57Z" transform="translate(-47.15)" style="fill:#131313"/><polygon points="510.63 351.62 455.78 351.62 455.78 271.43 510.63 279.51 510.63 351.62" style="fill:#d4d1d3"/><polygon points="446.64 352.81 432.54 352.81 432.54 266.11 446.64 271.05 446.64 352.81" style="fill:#d7d6d8"/><path d="M460.08,268.49c0-6.21-.94-11.25-2.09-11.25s-2.09,5-2.09,11.25v.07h0l.61,49.6,4.37-4.83-.8-44.77h0Z" transform="translate(-47.15)" style="fill:#adb2c1"/><polygon points="409.36 318.16 413.73 313.33 409.3 313.33 409.36 318.16" style="fill:#a2a8b6"/><polygon points="218.28 213.23 201.33 218.07 229.17 227.76 313.91 233.81 401.68 233.21 419.83 223.52 393.81 219.89 218.28 213.23" style="fill:#9fb2c6"/><path d="M356.83,132.73a92,92,0,0,0-92,90.18,627.13,627.13,0,0,0,99.24,7.52,646.8,646.8,0,0,0,84.74-5.38v-.32A92,92,0,0,0,356.83,132.73Z" transform="translate(-47.15)" style="fill:#007caf"/><path d="M411.87,187.77a91.72,91.72,0,0,1,31.44,5.52,92,92,0,0,0-178.46,29.62,595.72,595.72,0,0,0,69.77,6.89A91.94,91.94,0,0,1,411.87,187.77Z" transform="translate(-47.15)" style="fill:#1f8dc8"/><polygon points="277.69 442.64 277.69 420.33 280.75 417.27 305.58 422.67 369.65 408.81 406.12 424.48 406.12 436.71 369.65 421.59 336.36 428.97 336.36 443.24 277.69 442.64" style="fill:#dbe1ed"/><polygon points="297.85 444.08 297.85 433.47 369.83 418.35 369.83 421.59 336.36 428.97 362.99 444.08 297.85 444.08" style="fill:#a6a4aa"/><path d="M380.21,434.61V418.5a1.66,1.66,0,0,1,1.15-1.63,1.77,1.77,0,0,1,.89,0,1.65,1.65,0,0,1,1.21,1.65v16.12a1.71,1.71,0,0,1-1,1.57h0A1.64,1.64,0,0,1,380.21,434.61Z" transform="translate(-47.15)" style="fill:#34341c"/><path d="M381.15,418.38a1.57,1.57,0,0,1,1.18-1.52h0a1.17,1.17,0,0,0-.26,0,1.73,1.73,0,0,0-1.86,1.77v17.73l.6-.26a.57.57,0,0,0,.34-.52Z" transform="translate(-47.15)" style="fill:#695b3d"/><path d="M374.32,444.39s2.48-11.94,15.5-10.23S408.58,441,418,434s20.93,6.53,33.18,3.58l3.1,5.91Z" transform="translate(-47.15)" style="fill:#d6d9e1"/><path d="M299.15,446.52V412a6.82,6.82,0,0,0-2.48-5.32c-5.12-4.13-16.76-9-35.86-2.15-33.15,11.89-81-6.75-89.46-10.92a10.88,10.88,0,0,1-1.75-.93l-15.16-11.45a83.34,83.34,0,0,0-14.08-8.59l-6.89-3.31a5.21,5.21,0,0,0-.74-.3L98.51,357.69A6.23,6.23,0,0,0,92,359.33L81.18,370.64a6.24,6.24,0,0,1-2.49,1.6h0a6.72,6.72,0,0,0-4.39,6.39v67.15Z" transform="translate(-47.15)" style="fill:#e5e7eb"/><path d="M89.53,385.27l30,9.76a3.22,3.22,0,0,1,2.21,3.06V442.5H85.33V388.32A3.21,3.21,0,0,1,89.53,385.27Z" transform="translate(-47.15)" style="fill:#d9dadd"/><path d="M556,309.87c-36.43-4-63.71,17.16-67,19.78-14.26,11.41-24,26.52-25.82,34.7-.65,2.9-2,10.77-5.25,22.19-1.38,4.87-3.05,7.76-4,12.92a55.08,55.08,0,0,0-.48,16.42c1.7,19.47-6.29,29.87-3.89,36.12,6.79,17.72,89,37.63,128.1-7.28,37.23-42.8,15.79-123.19-14-133.56C561.66,310.5,559.76,310.29,556,309.87Z" transform="translate(-47.15)" style="fill:#dbdfe7"/><path d="M453.87,410.25c1-5.16,2.66-8.05,4-12.92,3.24-11.42,4.6-19.29,5.25-22.19C465,367,474.72,351.85,489,340.44c3.27-2.62,30.55-23.78,67-19.78,3.8.42,5.7.63,7.61,1.29,17.56,6.11,32.21,36.49,33.69,69.19,1.69-36.54-14.21-73.2-33.69-80-1.91-.66-3.81-.87-7.61-1.29-36.43-4-63.71,17.16-67,19.78-14.26,11.41-24,26.52-25.82,34.7-.65,2.9-2,10.77-5.25,22.19-1.38,4.87-3.05,7.76-4,12.92a52.52,52.52,0,0,0-.61,14.91C453.4,413.07,453.6,411.7,453.87,410.25Z" transform="translate(-47.15)" style="fill:#e9ecef"/><path d="M450.21,453.42c1.61-6.26,4.22-14.79,3.18-26.75v0c-1.12,12.74-5.81,20.37-3.89,25.35A9,9,0,0,0,450.21,453.42Z" transform="translate(-47.15)" style="fill:#e9ecef"/><g style="opacity:0.2;mix-blend-mode:multiply"><path d="M502.53,381.1c.32-6.46,24.36-14.82,30.24-19.65,6.07-5,12.47-6.42,8.44-15.39-2.89-6.45-11.07-9.29-17.47-8.6-9.88,1.08-24.95,12.55-34.14,17.2-19.43,9.84,3.62,14.89,12.93,26.44" transform="translate(-47.15)" style="fill:#d1d4de"/></g><g style="opacity:0.2;mix-blend-mode:multiply"><path d="M496.36,387.93c-2.58-1.81-2.05-3.14-5.25-3.37-2-.14-1.49,1.71-3.22,1.81-5.84.3-10.79-5.35-16.8-1.51-3.7,2.38-4.14,6.73-3.21,11.48,1.28,6.55,7.57,10.52,14.18,9.61,1.48-.21,3.5.53,6.87,2.76,4.54,3,7.7,14.27,13.95,12.08,5.68-2,7.58-13.39,5.61-17.22-2.31-4.49-8.36-12.15-12.13-15.64" transform="translate(-47.15)" style="fill:#d1d4de"/></g><g style="opacity:0.2;mix-blend-mode:multiply"><path d="M468.06,437.08c-7.7-.76-10.4-7.34-14.3,6.79-2.15,7.8-4.44,5.37.66,12.18,3,4,12.09,5.73,16.2,5.7,8.16-.06,15.19-3.76,24-3,7,.6,20.51,4.19,27.58,1.3,6.4-2.62,8.16-9.37,4.21-17.53-4.89-10.1-24.77-12.66-32.71-15.26-9.66-3.15-15.95,6.81-25.62,9.83" transform="translate(-47.15)" style="fill:#d1d4de"/></g><g style="opacity:0.2;mix-blend-mode:multiply"><path d="M605.33,402.19c.32-9.6-8-15.15-14.06-21.18-6.49-6.45-7.74-18.29-16.06-22.89-13.76-7.62-31.41,9.76-34.18,22.61-1.26,5.85,1.23,11.46.36,17-1,6.67-5.1,5.68-9.93,9.32-7.18,5.41-6.73,15-3.7,23,3,7.79,8,18.74,15.68,22.55,11.39,5.61,19.4-5.73,26.92-12,12.77-10.72,28-24.93,35.77-39.66" transform="translate(-47.15)" style="fill:#d1d4de"/></g><g style="opacity:0.2;mix-blend-mode:multiply"><path d="M533.49,328.28C527.33,342.4,569,350,577.74,349.81c1.13-11.78-11.25-24.94-22.17-26.4-5.48-.74-7.89,0-13,1.47-3.69,1-7.81-.12-9,4.42" transform="translate(-47.15)" style="fill:#d1d4de"/></g><path d="M531.82,60.16a8.46,8.46,0,0,1-2.28-.52c-.71-.26-1.34-.55-2.11-.86a2.12,2.12,0,0,1,1.23-.25,3.94,3.94,0,0,1,1.19.24A4.3,4.3,0,0,1,531.82,60.16Z" transform="translate(-47.15)" style="fill:#41591b"/><path d="M540.5,68.63a8.35,8.35,0,0,1-1-1.44l-.41-.73a6.92,6.92,0,0,0-.48-.72,2.1,2.1,0,0,1,1.42,1.14A3.31,3.31,0,0,1,540.5,68.63Z" transform="translate(-47.15)" style="fill:#41591b"/><path d="M536.56,67a1.42,1.42,0,0,1,.86-.82,1.23,1.23,0,0,1,1.2.13,7.25,7.25,0,0,1-1,.44A3.74,3.74,0,0,1,536.56,67Z" transform="translate(-47.15)" style="fill:#41591b"/><path d="M543.28,44.29a4.94,4.94,0,0,1-2.65,1.21,7.23,7.23,0,0,1-1.47,0,5.37,5.37,0,0,1-1.43-.31c1-.14,1.89-.21,2.81-.35A21.77,21.77,0,0,0,543.28,44.29Z" transform="translate(-47.15)" style="fill:#41591b"/><path d="M556.45,29.89a24.18,24.18,0,0,1-3.56,4.22c-.69.61-1.46,1.14-2.12,1.79A15.7,15.7,0,0,0,549,38c-.52.76-1,1.51-1.63,2.22s-1.12,1.45-1.72,2.15a37.2,37.2,0,0,1-3.92,3.92l-.09-.08a25.41,25.41,0,0,1,3-4.68c.57-.72,1.21-1.39,1.85-2.06a24.21,24.21,0,0,1,2-1.92,18.14,18.14,0,0,0,2-2c.6-.7,1.08-1.51,1.67-2.23a17.24,17.24,0,0,1,4.22-3.6Z" transform="translate(-47.15)" style="fill:#41591b"/><path d="M509.9,66.56c6-7.86,33.11-21.93,33.11-21.93s-5,19.61-5.75,33.68" transform="translate(-47.15)" style="fill:none;stroke:#41591b;stroke-miterlimit:10;stroke-width:0.612886329840988px"/><path d="M543.55,44S533,61.66,529,62.37s-12.13,6.8-14.45,8.78" transform="translate(-47.15)" style="fill:none;stroke:#41591b;stroke-miterlimit:10;stroke-width:0.612886329840988px"/><path d="M531.63,60.58A33.05,33.05,0,0,1,529,71.37" transform="translate(-47.15)" style="fill:none;stroke:#41591b;stroke-miterlimit:10;stroke-width:0.612886329840988px"/><path d="M526.75,63.12s-2.42,6.08-5.9,8.36" transform="translate(-47.15)" style="fill:none;stroke:#41591b;stroke-miterlimit:10;stroke-width:0.612886329840988px"/><path d="M519.54,67.38s-5.77-.11-8.41-1.33" transform="translate(-47.15)" style="fill:none;stroke:#41591b;stroke-miterlimit:10;stroke-width:0.612886329840988px"/><path d="M522.46,82.32s-1.1-1.63,1.07-5.44c1.86-3.29-1.74-7.09-4.65-8.1a1.13,1.13,0,0,0-1.48,1c-.21,2.42-.3,8,2.63,12.74,0,0-4.08-5.81-11,2.5,0,0-3.26,2.19,1.47,3.56,0,0,3.82,2.16,8.95-4.55,0,0,1.18,2.84-1,6.66s-2,6.24,2,7.9,3.06-11.69.66-14.44c0,0,4.91,3.79,5.8,5.92.63,1.53,3.18,3.54,4.58,4.56a1.06,1.06,0,0,0,1.57-.39,5.25,5.25,0,0,0-1.47-7,14.57,14.57,0,0,0-8.55-3.53s8.17,1.61,10.86-4.93S525,77.5,522.46,82.32Z" transform="translate(-47.15)" style="fill:#f7f7f6"/><path d="M522,83.33c-.45.51-.86.82-1.42.59A1.08,1.08,0,0,1,520,82.5c.23-.56.71-.45,1.26-.22S522.44,82.87,522,83.33Z" transform="translate(-47.15)" style="fill:#162d06"/><path d="M539.4,79.62s.59-2,5.21-2.87c4-.73,4.63-6.3,3.46-9.39a1.22,1.22,0,0,0-1.82-.54c-2.14,1.49-6.76,5.23-8.66,10.92,0,0,2-7.34-9.66-7.35,0,0-4-1.17-1.9,3.66,0,0,.85,4.63,9.89,4.22,0,0-1.52,2.93-6.15,3.77s-6.49,2.66-5.09,7.11,11.71-5.52,12.32-9.39c0,0,.26,6.65-.88,8.84-.82,1.57-.72,5.05-.6,6.9a1.15,1.15,0,0,0,1.41,1,5.64,5.64,0,0,0,4.69-6,15.53,15.53,0,0,0-3-9.45s4.3,7.82,11.53,5.54S545.14,78.42,539.4,79.62Z" transform="translate(-47.15)" style="fill:#fff"/><path d="M538.29,80c-.73,0-1.27-.15-1.46-.76a1.16,1.16,0,0,1,.76-1.47c.61-.19.85.28,1,.9S538.93,80,538.29,80Z" transform="translate(-47.15)" style="fill:#162d06"/><path d="M506.57,68.4s1-1.06,4.15-.09c2.7.84,4.9-2.4,5.18-4.69a.84.84,0,0,0-.95-.92,16.14,16.14,0,0,0-8.9,4s3.59-3.91-3.6-7.67c0,0-2.11-2-2.36,1.64,0,0-1,3.14,4.76,5.82a6,6,0,0,1-5,.34c-3.14-1-4.88-.46-5.46,2.75s9,.37,10.67-1.82c0,0-2,4.2-3.4,5.19-1,.71-2.09,2.89-2.61,4.07a.79.79,0,0,0,.54,1.09,3.91,3.91,0,0,0,4.84-2.18,10.89,10.89,0,0,0,1.22-6.82s.13,6.23,5.34,7.16S510.5,69.52,506.57,68.4Z" transform="translate(-47.15)" style="fill:#f7f7f6"/><path d="M505.76,68.26c-.44-.25-.73-.5-.66-1a.82.82,0,0,1,.95-.66c.44.08.44.45.36.89S506.16,68.47,505.76,68.26Z" transform="translate(-47.15)" style="fill:#162d06"/><path d="M505.37,73.07s-.7-1.56,1.73-4.51c2.1-2.54-.42-6.34-2.77-7.64a1,1,0,0,0-1.41.61,18.74,18.74,0,0,0,.34,11.33s-2.63-5.6-9.86.49c0,0-3.12,1.39.74,3.27,0,0,2.94,2.43,8.35-2.56,0,0,.59,2.62-1.84,5.57s-2.65,5.06.56,7.09,4.38-9.57,2.74-12.3c0,0,3.64,4,4.08,6,.32,1.4,2.2,3.52,3.24,4.6a.93.93,0,0,0,1.41-.09,4.58,4.58,0,0,0-.21-6.19,12.71,12.71,0,0,0-6.81-4.32s6.77,2.61,10.07-2.6S508.31,69.32,505.37,73.07Z" transform="translate(-47.15)" style="fill:#fff"/><path d="M504.86,73.87c-.46.38-.87.58-1.31.3a1,1,0,0,1-.29-1.31c.28-.44.67-.27,1.11,0S505.26,73.54,504.86,73.87Z" transform="translate(-47.15)" style="fill:#162d06"/><path d="M548.11,268.46a9.3,9.3,0,0,1-.51-2.71c0-.44-.05-.88-.05-1.32s0-.87,0-1.38a2.56,2.56,0,0,1,.85,1.21,5,5,0,0,1,.3,1.42,6,6,0,0,1-.08,1.41A4.18,4.18,0,0,1,548.11,268.46Z" transform="translate(-47.15)" style="fill:#41591b"/><path d="M543,281.87a11,11,0,0,1,1.09-1.74l.59-.79a7.55,7.55,0,0,0,.57-.86,1.82,1.82,0,0,1-.06,1.11,3.33,3.33,0,0,1-.51,1A3.82,3.82,0,0,1,543,281.87Z" transform="translate(-47.15)" style="fill:#41591b"/><path d="M543,276.82a1.67,1.67,0,0,1,1.3.54,1.47,1.47,0,0,1,.42,1.36,9.16,9.16,0,0,1-.94-.86A4.47,4.47,0,0,1,543,276.82Z" transform="translate(-47.15)" style="fill:#41591b"/><path d="M570.72,273.37a5.71,5.71,0,0,1-2.56-2.3,7.55,7.55,0,0,1-.75-1.57,6.52,6.52,0,0,1-.35-1.69c.61,1,1.12,1.95,1.71,2.87A24.43,24.43,0,0,0,570.72,273.37Z" transform="translate(-47.15)" style="fill:#41591b"/><path d="M596.47,282a35.79,35.79,0,0,1-7.25-2.13c-1.15-.51-2.26-1.14-3.43-1.59a23.6,23.6,0,0,0-3.63-1.05c-1.23-.26-2.46-.54-3.67-.88s-2.43-.64-3.62-1a62.62,62.62,0,0,1-7.08-2.68l0-.14a39,39,0,0,1,7.47,1.34c1.22.33,2.41.76,3.6,1.19s2.36.9,3.51,1.43a28.49,28.49,0,0,0,3.53,1.35c1.2.37,2.47.57,3.69.9a27.06,27.06,0,0,1,3.54,1.34,22.56,22.56,0,0,1,3.35,1.8Z" transform="translate(-47.15)" style="fill:#41591b"/><path d="M530.8,247.75c11.33,2.73,39.42,25.49,39.42,25.49s-23.59,3.9-39.2,9.71" transform="translate(-47.15)" style="fill:none;stroke:#41591b;stroke-miterlimit:10;stroke-width:0.724532061888647px"/><path d="M571.22,273.51s-24.2-3.1-26.85-7.06-13.1-9.93-16.34-11.51" transform="translate(-47.15)" style="fill:none;stroke:#41591b;stroke-miterlimit:10;stroke-width:0.724532061888647px"/><path d="M547.56,268.46a39,39,0,0,1-12.92,2.26" transform="translate(-47.15)" style="fill:none;stroke:#41591b;stroke-miterlimit:10;stroke-width:0.724532061888647px"/><path d="M542.51,264.37s-7.74.25-11.85-2.43" transform="translate(-47.15)" style="fill:none;stroke:#41591b;stroke-miterlimit:10;stroke-width:0.724532061888647px"/><path d="M534.48,258.57s-2.61-6.3-2.54-9.74" transform="translate(-47.15)" style="fill:none;stroke:#41591b;stroke-miterlimit:10;stroke-width:0.724532061888647px"/><path d="M519.67,268.8s1.24-1.95,6.4-1.41c4.45.46,6.86-5.24,6.57-8.87a1.33,1.33,0,0,0-1.75-1.14c-2.73.91-8.78,3.45-12.56,8.88,0,0,4.36-7.17-7.94-10.78,0,0-3.91-2.5-3.15,3.28,0,0-.54,5.16,9.16,7.54,0,0-2.52,2.62-7.68,2.08s-7.71.8-7.6,5.95,14.11-2.22,16-6.12c0,0-1.78,7.12-3.68,9.09-1.35,1.41-2.33,5.12-2.77,7.11a1.27,1.27,0,0,0,1.17,1.53,6.21,6.21,0,0,0,6.83-4.89c1.8-6.47-.22-10.93-.22-10.93s2.12,9.6,10.48,9.44S526.11,269.32,519.67,268.8Z" transform="translate(-47.15)" style="fill:#f7f7f6"/><path d="M518.38,268.83c-.77-.24-1.3-.55-1.31-1.26a1.28,1.28,0,0,1,1.26-1.31c.71,0,.81.56.83,1.27S519.06,269,518.38,268.83Z" transform="translate(-47.15)" style="fill:#162d06"/><path d="M530.61,285.88s2.47-.32,5.57,4.29c2.68,4,9,2,11.81-.7a1.42,1.42,0,0,0-.28-2.22c-2.62-1.61-8.86-4.84-15.92-4.22,0,0,8.88-1.35,3.39-13.94,0,0-.64-4.92-4.86-.33,0,0-4.61,3.11.11,12.71,0,0-3.89-.26-7-4.87s-6-5.78-10.11-2.16,11.52,10.07,16,8.91c0,0-7.07,3.43-10,3.23-2.09-.14-5.81,1.61-7.76,2.61a1.36,1.36,0,0,0-.45,2,6.66,6.66,0,0,0,8.72,2.25c6.55-3,8.83-7.7,8.83-7.7s-6.43,8.36-.54,15.11S534.63,291.53,530.61,285.88Z" transform="translate(-47.15)" style="fill:#fff"/><path d="M529.71,284.84c-.33-.79-.44-1.44.13-1.94a1.39,1.39,0,0,1,1.95.13c.5.58.1,1.06-.48,1.56S530,285.55,529.71,284.84Z" transform="translate(-47.15)" style="fill:#162d06"/><path d="M527.23,245s1.63.6,2.06,4.46c.37,3.32,4.92,4.18,7.53,3.39a1,1,0,0,0,.55-1.46,19,19,0,0,0-8.49-7.77s5.94,2,6.62-7.53c0,0,1.2-3.26-2.91-1.78,0,0-3.86.43-4.05,7.9,0,0-2.32-1.42-2.75-5.28s-1.81-5.51-5.56-4.61,3.87,10,7,10.7c0,0-5.49-.17-7.23-1.24-1.24-.77-4.11-.89-5.64-.9a.94.94,0,0,0-.93,1.1,4.65,4.65,0,0,0,4.66,4.22,12.86,12.86,0,0,0,8-1.91s-6.69,3.09-5.23,9.18S527.88,249.8,527.23,245Z" transform="translate(-47.15)" style="fill:#f7f7f6"/><path d="M527,244.07c0-.6.19-1,.71-1.17a1,1,0,0,1,1.16.72c.12.51-.28.68-.8.81S527,244.6,527,244.07Z" transform="translate(-47.15)" style="fill:#162d06"/><path d="M521.6,245.91s1.37-1.49,5.71-.25c3.74,1.07,6.67-3.46,7-6.62A1.15,1.15,0,0,0,533,237.8c-2.48.37-8.05,1.64-12.11,5.73,0,0,4.81-5.5-5.2-10.45,0,0-3-2.73-3.19,2.34,0,0-1.24,4.35,6.72,7.85,0,0-2.55,1.87-6.9.63s-6.73-.47-7.42,4,12.45.22,14.62-2.84c0,0-2.6,5.83-4.52,7.24-1.38,1-2.77,4-3.45,5.69a1.09,1.09,0,0,0,.77,1.48,5.41,5.41,0,0,0,6.6-3.16,15,15,0,0,0,1.45-9.42s.38,8.57,7.58,9.68S527.05,247.32,521.6,245.91Z" transform="translate(-47.15)" style="fill:#fff"/><path d="M520.49,245.74c-.62-.32-1-.67-.93-1.28a1.11,1.11,0,0,1,1.28-.93c.61.09.61.6.52,1.21S521,246,520.49,245.74Z" transform="translate(-47.15)" style="fill:#162d06"/><path d="M577.14,270.44s9-6.83-.61-22.95c0,0-3.72-7-14.82-12.18a31.31,31.31,0,0,1-8.36-6.84,41,41,0,0,1,4.44,11c1.28,5.83,4.17,8.75,4.18,15.39S567.57,273.08,577.14,270.44Z" transform="translate(-47.15)" style="fill:#41591b"/><path d="M577.14,270.44l-5.51-10.77c-1.86-3.58-3.69-7.16-5.63-10.68-1-1.77-1.92-3.53-2.93-5.27l-1.49-2.62L560,238.52c-2.1-3.42-4.25-6.81-6.68-10.05a66.06,66.06,0,0,1,7.63,9.44,120.55,120.55,0,0,1,6.29,10.39q2.9,5.34,5.37,10.88C574.31,262.86,575.82,266.61,577.14,270.44Z" transform="translate(-47.15)" style="fill:#162d06"/><path d="M577.14,270.44a5.68,5.68,0,0,1,1.06,4.7" transform="translate(-47.15)" style="fill:none;stroke:#41591b;stroke-miterlimit:10;stroke-width:0.724532061888647px"/><path d="M582.48,277a9.5,9.5,0,0,0-6.26,2" transform="translate(-47.15)" style="fill:none;stroke:#41591b;stroke-miterlimit:10;stroke-width:0.724532061888647px"/><path d="M577.5,278.6s-14.36-3.43-25.39,17.39a50.13,50.13,0,0,0-2.91,13.6c-.24,6.6-2.14,6.86,1.81,15.34,0,0,1.21-5.8,3.61-7.44s24.76-14.07,20.6-35.88C575.22,281.61,574.12,280.91,577.5,278.6Z" transform="translate(-47.15)" style="fill:#79913c"/><path d="M577.5,278.6c-2.21.63-3.7,2.51-4.78,4.4-.55,1-1,2-1.49,3s-1.08,2-1.64,3c-2.27,3.95-4.67,7.79-7,11.67s-4.67,7.75-6.84,11.71c-1.07,2-2.11,4-3,6a25.51,25.51,0,0,0-1.2,3.15,9.77,9.77,0,0,0-.53,3.31,8.76,8.76,0,0,1,.09-3.42,27.15,27.15,0,0,1,.87-3.33,55,55,0,0,1,2.61-6.35c1.95-4.13,4.23-8.08,6.57-12s4.84-7.7,7.32-11.49c.61-.94,1.21-1.9,1.8-2.85s1.08-2,1.76-2.95a13,13,0,0,1,2.36-2.56A5.85,5.85,0,0,1,577.5,278.6Z" transform="translate(-47.15)" style="fill:#41591b"/><path d="M554.21,261.13s-3.44-2.27-3.49-5.77" transform="translate(-47.15)" style="fill:none;stroke:#41591b;stroke-miterlimit:10;stroke-width:0.644043717081px"/><path d="M550.74,256.23s-8.39,1.74-12.46-15.88c0,0-1.66-3.55.81-13.23s-2.4-11-2.4-11,11.68,5.8,14.18,13.81S556,252,550.74,256.23Z" transform="translate(-47.15)" style="fill:#79913c"/><path d="M550.74,256.23a5.61,5.61,0,0,1-1.73-2,24.86,24.86,0,0,1-1.24-2.34,45.68,45.68,0,0,1-1.85-4.93c-.55-1.67-1-3.37-1.41-5.09s-.71-3.44-1-5.17c-.54-3.47-.9-6.94-1.48-10.34s-1.54-6.8-4-9.38a12.1,12.1,0,0,1,3.24,4.15,24.44,24.44,0,0,1,1.73,5c.79,3.45,1.2,6.92,1.76,10.35a98.24,98.24,0,0,0,2.09,10.18c.44,1.67.9,3.35,1.48,5,.29.81.58,1.63.95,2.41A6.33,6.33,0,0,0,550.74,256.23Z" transform="translate(-47.15)" style="fill:#41591b"/><path d="M491.6,99.85q4.81-4.75,9.69-9.42c3.23-3.13,6.42-6.3,9.62-9.45a55.59,55.59,0,0,0,4.5-5c.34-.45.62-.9.92-1.39s.65-1,1-1.4c.68-.91,1.41-1.77,2.14-2.64,2.93-3.43,6-6.72,9.22-9.92a135.48,135.48,0,0,1,10.08-9.07,106.55,106.55,0,0,1,11-8,69.18,69.18,0,0,1,12.16-6.11,30.88,30.88,0,0,1,13.35-2.18v.14a33.6,33.6,0,0,0-13,3,76.8,76.8,0,0,0-11.78,6.34q-5.64,3.64-11,7.8c-3.52,2.77-6.94,5.69-10.28,8.7a107.14,107.14,0,0,0-9.51,9.55c-.74.84-1.44,1.73-2.11,2.62-.33.45-.64.92-.92,1.39s-.57,1-.89,1.46a54.63,54.63,0,0,1-4.24,5.32,118.49,118.49,0,0,1-9.6,9.55c-3.34,3-6.77,6-10.32,8.76Z" transform="translate(-47.15)" style="fill:#41591b"/><path d="M489.74,86.07S510.26,79,523,67.2" transform="translate(-47.15)" style="fill:none;stroke:#41591b;stroke-miterlimit:10;stroke-width:0.665391093792352px"/><path d="M494.8,88.9c1.13-1.21,2.25-2.44,3.31-3.71.53-.63,1-1.29,1.51-2a10.49,10.49,0,0,0,1.21-2.09l.34.43a18.38,18.38,0,0,1-3.31.24,27.87,27.87,0,0,1-3.29-.26,27.38,27.38,0,0,1-6.32-1.73A41.24,41.24,0,0,0,494.64,81a26.79,26.79,0,0,0,3.23.19,31.09,31.09,0,0,0,3.2-.23l.55-.07-.21.5a11.18,11.18,0,0,1-1.32,2.19,21.45,21.45,0,0,1-1.63,1.92A35.6,35.6,0,0,1,494.8,88.9Z" transform="translate(-47.15)" style="fill:#41591b"/><path d="M522.25,94.1c-.42.8-.82,1.59-1.17,2.41S520.34,98.14,520,99c-.69,1.65-1.36,3.3-2,5s-1.23,3.35-1.84,5-1.18,3.37-1.8,5.05c.18-.87.4-1.74.6-2.62l.71-2.59q.78-2.58,1.71-5.1c.66-1.67,1.33-3.34,2.13-5A30,30,0,0,1,522.25,94.1Z" transform="translate(-47.15)" style="fill:#41591b"/><path d="M539.93,52S535.77,66.77,538,74.1" transform="translate(-47.15)" style="fill:none;stroke:#41591b;stroke-linecap:round;stroke-linejoin:round;stroke-width:0.665391093792352px"/><path d="M527.67,72.6S529.79,90.92,547.45,97s17.57,4,21.56,8.09c0,0-3.93-6.65-4.06-11s-4.53-12.55-14.32-16.76-21.45-2.44-23.33-9l-.82-4.57Z" transform="translate(-47.15)" style="fill:#79913c"/><path d="M568.39,104c-1.83-1.4-3.65-2.81-5.5-4.18s-3.66-2.79-5.52-4.14c-3.71-2.71-7.44-5.4-11.25-7.94a100.12,100.12,0,0,1-11.27-8.09,33.81,33.81,0,0,1-4.82-5,13.41,13.41,0,0,1-2.73-6.35,14,14,0,0,0,3.24,5.94,32.28,32.28,0,0,0,5,4.66c3.59,2.85,7.46,5.24,11.34,7.77S554.41,92,558,94.9q2.68,2.17,5.31,4.44C565,100.87,566.75,102.4,568.39,104Z" transform="translate(-47.15)" style="fill:#41591b"/><path d="M547.42,46.46s2.4-13.67-11.21-17.64S522.57,22,514.86,21.45s-12.16-3.16-12.16-3.16,3.66,3.32,7.29,6.15S522.33,54.68,547.42,46.46Z" transform="translate(-47.15)" style="fill:#41591b"/><path d="M547.42,46.46c-2-.84-4-1.84-6-2.84s-3.89-2.14-5.8-3.28a98.55,98.55,0,0,1-10.94-7.61,114.81,114.81,0,0,0-10.43-8.07,64.38,64.38,0,0,0-5.61-3.45,53.6,53.6,0,0,0-5.94-2.92,49.67,49.67,0,0,1,12.1,5.5,64.74,64.74,0,0,1,5.54,3.74c1.79,1.33,3.48,2.8,5.18,4.17,3.41,2.77,7,5.31,10.65,7.78q2.75,1.85,5.57,3.57C543.6,44.24,545.51,45.35,547.42,46.46Z" transform="translate(-47.15)" style="fill:#162d06"/><path d="M520.87,66.54s-3.08-1-8.77-5.05S503,53.7,496.61,53.2c0,0-1.86-1.66-6.26-2.42,0,0-8.18-2.5-12-2.2,0,0,0,3,3.31,7.44s.84,7,3.92,10.08,12.77,8.73,19.43,9.12S520.87,66.54,520.87,66.54Z" transform="translate(-47.15)" style="fill:#41591b"/><path d="M478.31,48.58c1.61,1.19,3.19,2.41,4.82,3.56s3.23,2.34,4.88,3.45a112.6,112.6,0,0,0,10.12,6.27,43.26,43.26,0,0,0,11,4.28,30.21,30.21,0,0,0,5.84.82,22.32,22.32,0,0,0,5.93-.42,23.71,23.71,0,0,1-12,.6A37.47,37.47,0,0,1,497.5,63a77.86,77.86,0,0,1-10.09-6.61q-2.39-1.83-4.68-3.77C481.23,51.32,479.72,50,478.31,48.58Z" transform="translate(-47.15)" style="fill:#162d06"/><path d="M519.13,67a27.33,27.33,0,0,0,2.87-.51,12.3,12.3,0,0,0,1.38-.43,3.37,3.37,0,0,0,1.2-.69l.36-.36-.07.51c-.49,3.14-.83,6.31-1.18,9.47s-.57,6.34-.81,9.51-.31,6.36-.39,9.54,0,6.36.13,9.55a112.12,112.12,0,0,1-.37-19.13c.17-3.19.49-6.36.85-9.54s.86-6.32,1.43-9.46l.29.15a3.79,3.79,0,0,1-1.35.7,10.28,10.28,0,0,1-1.43.35A20.43,20.43,0,0,1,519.13,67Z" transform="translate(-47.15)" style="fill:#41591b"/><path d="M523.44,62A19.63,19.63,0,0,0,525,65.09" transform="translate(-47.15)" style="fill:none;stroke:#41591b;stroke-miterlimit:10;stroke-width:0.665391093792352px"/><path d="M523.56,62.79s-11-1.4-10-15.57,12.08-24.07,13-31.3c0,0,8,15.14,6.58,27.3S527.65,63,523.56,62.79Z" transform="translate(-47.15)" style="fill:#79913c"/><path d="M523.56,62.79a55.2,55.2,0,0,1-1-11.77,77.78,77.78,0,0,1,1-11.8c.65-3.86,1.2-7.73,1.75-11.61q.39-2.91.71-5.84c.25-1.94.43-3.89.62-5.85.11,2,.06,3.93,0,5.9s-.2,3.93-.35,5.9c-.3,3.92-.82,7.83-1.45,11.72s-1.05,7.72-1.31,11.62c-.12,1.95-.17,3.9-.17,5.85S523.41,60.83,523.56,62.79Z" transform="translate(-47.15)" style="fill:#41591b"/><path d="M547.66,49.28a4.1,4.1,0,0,1-1.14-2.2" transform="translate(-47.15)" style="fill:none;stroke:#41591b;stroke-miterlimit:10;stroke-width:0.665391093792352px"/><path d="M546.75,48.61s-4.51,10.45,7.2,20.53,21.8,5,29,11.54c0,0-3.78-21.18-14.27-26.17S555.12,48,546.75,48.61Z" transform="translate(-47.15)" style="fill:#79913c"/><path d="M546.75,48.61c1.72,1.07,3.37,2.24,5,3.37l4.93,3.56c3.26,2.4,6.44,4.91,9.56,7.49s6.17,5.27,9,8.15,5.75,5.85,7.58,9.5a30.13,30.13,0,0,0-3.9-4.6c-1.39-1.45-2.89-2.8-4.38-4.16-3-2.67-6.09-5.28-9.19-7.86l-9.34-7.72-4.69-3.84Z" transform="translate(-47.15)" style="fill:#41591b"/><path d="M473.45,96s.63,1.92,5.12,2.56c3.86.56,4.68,5.9,3.66,8.91a1.17,1.17,0,0,1-1.73.59c-2.11-1.35-6.69-4.79-8.73-10.2,0,0,2.16,7-9,7.43,0,0-3.84,1.28-2-3.45,0,0,.64-4.48,9.36-4.42,0,0-1.57-2.76-6.05-3.41s-6.35-2.32-5.16-6.65,11.47,4.89,12.2,8.58c0,0,0-6.4-1.17-8.47-.85-1.48-.88-4.83-.83-6.62a1.1,1.1,0,0,1,1.31-1,5.43,5.43,0,0,1,4.74,5.6,15,15,0,0,1-2.52,9.2s3.85-7.67,10.89-5.74S479,97,473.45,96Z" transform="translate(-47.15)" style="fill:#f7f7f6"/><path d="M472.36,95.71c-.6-.17-.58-.2-.74.4s-.45,1.6.15,1.76a1.12,1.12,0,1,0,.59-2.16Z" transform="translate(-47.15)" style="fill:#162d06"/><path d="M481.13,75.75s1.95-.52,2.88-5c.8-3.82,6.18-4.3,9.12-3.1a1.16,1.16,0,0,1,.48,1.76c-1.48,2-5.2,6.38-10.72,8.08,0,0,7.12-1.71,6.84,9.47,0,0,1,3.92-3.56,1.75,0,0-4.44-.93-3.83-9.62,0,0-2.85,1.39-3.78,5.82s-2.72,6.2-7,4.74,5.6-11.14,9.34-11.64c0,0-6.39-.41-8.53.64-1.53.75-4.88.57-6.66.41a1.1,1.1,0,0,1-.95-1.38,5.42,5.42,0,0,1,5.88-4.38,15,15,0,0,1,9,3.1s-7.42-4.33-5.06-11.23S482.42,70.26,481.13,75.75Z" transform="translate(-47.15)" style="fill:#f7f7f6"/><path d="M480.76,76.81c-.2.59-.23.57.36.77s1.57.55,1.77,0a1.13,1.13,0,0,0-2.13-.73Z" transform="translate(-47.15)" style="fill:#162d06"/><path d="M534.06,113.71s2-.51,2.88-4.94c.8-3.82,6.18-4.31,9.13-3.11a1.17,1.17,0,0,1,.47,1.77c-1.48,2-5.2,6.38-10.72,8.08,0,0,7.12-1.72,6.85,9.47,0,0,1,3.91-3.57,1.74,0,0-4.43-.92-3.83-9.62,0,0-2.85,1.4-3.77,5.83s-2.72,6.19-7,4.73,5.6-11.14,9.33-11.64c0,0-6.39-.41-8.53.64-1.53.75-4.88.57-6.65.41a1.09,1.09,0,0,1-1-1.37,5.41,5.41,0,0,1,5.88-4.38,14.94,14.94,0,0,1,9,3.09s-7.42-4.32-5-11.23S535.35,108.22,534.06,113.71Z" transform="translate(-47.15)" style="fill:#f7f7f6"/><path d="M533.7,114.78c-.2.58-.24.57.35.77s1.57.54,1.77,0a1.12,1.12,0,1,0-2.12-.73Z" transform="translate(-47.15)" style="fill:#162d06"/><path d="M533.73,100.06s1.47-.7,1.52-4.35c0-3.14,4.22-4.35,6.73-3.85a.94.94,0,0,1,.65,1.32,17.93,17.93,0,0,1-7.23,8s5.36-2.45,6.86,6.43c0,0,1.42,2.94-2.55,1.93,0,0-3.64,0-4.5-7a6.64,6.64,0,0,0-2.09,5.19c0,3.64-1.19,5.31-4.78,4.81s2.72-9.66,5.59-10.63c0,0-5.11.66-6.64,1.81-1.1.83-3.77,1.2-5.2,1.35a.87.87,0,0,1-1-.94,4.35,4.35,0,0,1,4-4.36,12.11,12.11,0,0,1,7.61,1s-6.53-2.27-5.72-8.09S533.91,95.52,533.73,100.06Z" transform="translate(-47.15)" style="fill:#f7f7f6"/><path d="M533.61,101c-.07.49-.1.49.4.55s1.32.19,1.39-.3a.9.9,0,0,0-1.79-.25Z" transform="translate(-47.15)" style="fill:#162d06"/><path d="M512.08,117s-2.33-.27-5.19,4.13c-2.46,3.78-8.47,2-11.14-.49a1.34,1.34,0,0,1,.23-2.1c2.44-1.56,8.28-4.7,14.95-4.21,0,0-8.4-1.14-3.4-13.09,0,0,.53-4.66,4.58-.39,0,0,4.39,2.86.08,12,0,0,3.67-.31,6.53-4.7s5.53-5.54,9.5-2.18-10.72,9.66-15,8.63c0,0,6.72,3.13,9.47,2.9,2-.17,5.5,1.43,7.35,2.35a1.26,1.26,0,0,1,.45,1.88,6.26,6.26,0,0,1-8.18,2.26c-6.22-2.71-8.44-7.13-8.44-7.13s6.19,7.78.74,14.23S508.38,122.38,512.08,117Z" transform="translate(-47.15)" style="fill:#fff"/><path d="M512.92,116c.3-.76.39-1.37-.16-1.84a1.3,1.3,0,0,0-1.83.16c-.46.55-.08,1,.47,1.46S512.65,116.67,512.92,116Z" transform="translate(-47.15)" style="fill:#162d06"/><path d="M490.42,103.68s-2.06-.87-5.86,2.38c-3.28,2.8-8.31-.41-10.07-3.44a1.29,1.29,0,0,1,.77-1.87c2.66-.77,8.85-2.07,14.83.18,0,0-7.38-3.31.41-12.91,0,0,1.74-4.12,4.3.88,0,0,3.25,3.81-3.15,11,0,0,3.43.71,7.24-2.54s6.55-3.59,9.29.56-12.42,6-16,3.88c0,0,5.31,4.67,7.89,5.2,1.85.38,4.66,2.79,6.1,4.13a1.22,1.22,0,0,1-.09,1.85,6,6,0,0,1-8.1-.14,16.6,16.6,0,0,1-5.81-8.81s3.57,8.8-3.16,13.24S485.58,107.62,490.42,103.68Z" transform="translate(-47.15)" style="fill:#fff"/><path d="M491.46,103c.48-.61.73-1.15.35-1.72a1.24,1.24,0,0,0-1.72-.35c-.57.37-.34.89,0,1.46S491,103.54,491.46,103Z" transform="translate(-47.15)" style="fill:#162d06"/><path d="M506.31,169.42q6.74-.64,13.46-1.19c4.48-.38,9-.82,13.42-1.23a54.54,54.54,0,0,0,6.64-1c.54-.14,1-.3,1.59-.5s1.1-.32,1.65-.46c1.1-.27,2.21-.47,3.32-.69,4.44-.81,8.92-1.39,13.42-1.85a133,133,0,0,1,13.54-.66,104.21,104.21,0,0,1,13.56.78,68.22,68.22,0,0,1,13.29,2.95,30.85,30.85,0,0,1,11.72,6.75l-.09.1a33.51,33.51,0,0,0-11.94-5.88A77.22,77.22,0,0,0,586.75,164c-4.45-.49-8.93-.78-13.41-.87s-9,0-13.47.23a107.7,107.7,0,0,0-13.41,1.4c-1.1.18-2.2.43-3.29.7-.54.14-1.07.3-1.59.49s-1.07.41-1.61.57a52.54,52.54,0,0,1-6.65,1.44,119.67,119.67,0,0,1-13.48,1.33c-4.5.25-9,.36-13.53.27Z" transform="translate(-47.15)" style="fill:#41591b"/><path d="M513.57,157.56s20.4,7.46,37.68,6.38" transform="translate(-47.15)" style="fill:none;stroke:#41591b;stroke-miterlimit:10;stroke-width:0.665391093792352px"/><path d="M515.7,163c1.65-.22,3.29-.47,4.92-.78.81-.16,1.61-.35,2.4-.56a10.46,10.46,0,0,0,2.25-.85v.55a17.85,17.85,0,0,1-2.71-1.91,27.14,27.14,0,0,1-2.39-2.28,27.76,27.76,0,0,1-3.81-5.34,40.83,40.83,0,0,0,4.22,4.95,25.84,25.84,0,0,0,2.38,2.18,26.35,26.35,0,0,0,2.62,1.85l.47.3-.47.25a10.54,10.54,0,0,1-2.41.86,19.27,19.27,0,0,1-2.48.45A34.76,34.76,0,0,1,515.7,163Z" transform="translate(-47.15)" style="fill:#41591b"/><path d="M533.69,184.34c-.83.34-1.64.71-2.43,1.12s-1.6.79-2.39,1.22c-1.57.84-3.13,1.69-4.66,2.61s-3.07,1.81-4.61,2.73-3,1.87-4.59,2.77c.69-.56,1.41-1.1,2.12-1.65l2.2-1.55c1.48-1,3-2,4.54-2.88s3.14-1.74,4.78-2.49A30.25,30.25,0,0,1,533.69,184.34Z" transform="translate(-47.15)" style="fill:#41591b"/><path d="M574,162.86s-12.58,8.84-15.45,15.95" transform="translate(-47.15)" style="fill:none;stroke:#41591b;stroke-linecap:round;stroke-linejoin:round;stroke-width:0.665391093792352px"/><path d="M551.48,171.1s-9.94,15.53-.12,31.44,11.08,14.21,11.6,19.9c0,0,1.15-7.65,3.83-11.13s4.43-12.59-.5-22-15.08-15.45-12.37-21.76l2.26-4.06Z" transform="translate(-47.15)" style="fill:#79913c"/><path d="M563.18,221.18c-.54-2.24-1-4.48-1.62-6.71s-1.08-4.48-1.67-6.7c-1.16-4.45-2.35-8.88-3.7-13.26a100.82,100.82,0,0,1-3.61-13.39,33.78,33.78,0,0,1-.56-7,13.64,13.64,0,0,1,1.9-6.65,14.08,14.08,0,0,0-1.24,6.66,32.8,32.8,0,0,0,.9,6.75c1,4.47,2.47,8.78,3.88,13.19s2.49,8.91,3.42,13.43q.71,3.39,1.31,6.8C562.55,216.62,562.93,218.89,563.18,221.18Z" transform="translate(-47.15)" style="fill:#41591b"/><path d="M583.31,163.33s10.5-9.08,2.46-20.76-6.25-13.91-11.89-19.2-7.42-10.14-7.42-10.14.74,4.88,1.76,9.38S558.67,153.84,583.31,163.33Z" transform="translate(-47.15)" style="fill:#41591b"/><path d="M583.31,163.33c-1.06-2-2-4-2.86-6s-1.66-4.12-2.42-6.2a99.58,99.58,0,0,1-3.66-12.81,117,117,0,0,0-3-12.85q-.95-3.16-2.17-6.23a54.26,54.26,0,0,0-2.76-6,49.43,49.43,0,0,1,5.9,11.92,64.38,64.38,0,0,1,1.93,6.39c.55,2.16.92,4.37,1.38,6.5.88,4.31,2.07,8.55,3.33,12.77q1,3.16,2.06,6.28C581.75,159.19,582.53,161.26,583.31,163.33Z" transform="translate(-47.15)" style="fill:#162d06"/><path d="M550,162.1s-1.78-2.69-3.6-9.45-2.11-11.77-6.76-16.22c0,0-.4-2.47-3.33-5.83,0,0-4.76-7.11-7.93-9.32,0,0-1.91,2.33-2.14,7.86s-3.8,6-3.34,10.29,4.38,14.84,9.29,19.35S550,162.1,550,162.1Z" transform="translate(-47.15)" style="fill:#41591b"/><path d="M528.42,121.28c.48,1.94.94,3.89,1.48,5.81s1,3.86,1.6,5.76a111.38,111.38,0,0,0,3.88,11.25,43.16,43.16,0,0,0,5.79,10.25,28.91,28.91,0,0,0,4,4.33A21.78,21.78,0,0,0,550,162.1a23.77,23.77,0,0,1-9.66-7.1,37.25,37.25,0,0,1-6.23-10.39,76.75,76.75,0,0,1-3.64-11.5q-.69-2.93-1.24-5.88C528.94,125.25,528.61,123.28,528.42,121.28Z" transform="translate(-47.15)" style="fill:#162d06"/><path d="M548.43,161.33a29,29,0,0,0,2.55,1.42,10.42,10.42,0,0,0,1.34.54,3.46,3.46,0,0,0,1.36.22l.51,0-.38.35c-2.36,2.13-4.63,4.37-6.9,6.59s-4.45,4.55-6.64,6.86S536,182,533.94,184.4s-4,4.94-5.93,7.49a111.15,111.15,0,0,1,11.8-15.06c2.14-2.36,4.4-4.62,6.68-6.85s4.67-4.36,7.1-6.43l.13.3a3.85,3.85,0,0,1-1.49-.31,12.61,12.61,0,0,1-1.34-.63A21,21,0,0,1,548.43,161.33Z" transform="translate(-47.15)" style="fill:#41591b"/><path d="M554.91,160.21a19.23,19.23,0,0,0-.77,3.37" transform="translate(-47.15)" style="fill:none;stroke:#41591b;stroke-miterlimit:10;stroke-width:0.665391093792352px"/><path d="M554.5,160.9s-7.68-8.07,2.1-18.38,24.58-11,29.89-16c0,0-3.34,16.82-12.16,25.32S557.57,163.61,554.5,160.9Z" transform="translate(-47.15)" style="fill:#79913c"/><path d="M554.5,160.9a54.76,54.76,0,0,1,6.62-9.78,78,78,0,0,1,8.25-8.51c3-2.58,5.82-5.23,8.7-7.89q2.14-2,4.24-4.07c1.42-1.35,2.79-2.75,4.18-4.15-1.16,1.6-2.44,3.09-3.71,4.6s-2.64,2.92-4,4.35c-2.72,2.85-5.6,5.55-8.54,8.16a115.2,115.2,0,0,0-8.36,8.18c-1.33,1.43-2.6,2.91-3.83,4.43S555.62,159.28,554.5,160.9Z" transform="translate(-47.15)" style="fill:#41591b"/><path d="M581.71,165.67a4.1,4.1,0,0,1,.51-2.43" transform="translate(-47.15)" style="fill:none;stroke:#41591b;stroke-miterlimit:10;stroke-width:0.665391093792352px"/><path d="M581.43,164.57S571.34,169.82,574,185s13.75,17.62,15.14,27.24c0,0,10.46-18.8,5.49-29.29S588.28,169.41,581.43,164.57Z" transform="translate(-47.15)" style="fill:#79913c"/><path d="M581.43,164.57c.65,1.92,1.2,3.87,1.78,5.81l1.57,5.86c1,3.93,1.89,7.88,2.68,11.86s1.45,8,1.85,12,.76,8.17-.13,12.15a29.64,29.64,0,0,0-.12-6c-.16-2-.46-4-.76-6-.64-4-1.38-7.95-2.15-11.91l-2.36-11.88-1.21-5.94Z" transform="translate(-47.15)" style="fill:#41591b"/><path d="M494.67,155s-.72,1.89,2.34,5.23c2.64,2.87-.1,7.53-2.79,9.22a1.17,1.17,0,0,1-1.71-.64c-.78-2.38-2.16-7.94-.32-13.42,0,0-2.75,6.79-11.69.05,0,0-3.78-1.44.66-3.92,0,0,3.33-3.06,10,2.5,0,0,.53-3.14-2.54-6.47s-3.45-5.82.21-8.42,5.79,11,4,14.37c0,0,4-5,4.45-7.31.28-1.68,2.37-4.3,3.53-5.65a1.1,1.1,0,0,1,1.68,0,5.42,5.42,0,0,1,.14,7.33,15,15,0,0,1-7.78,5.54s7.84-3.51,12.08,2.43S498.38,159.21,494.67,155Z" transform="translate(-47.15)" style="fill:#f7f7f6"/><path d="M494,154.05c-.36-.51-.33-.53-.84-.17s-1.35,1-1,1.47a1.12,1.12,0,0,0,1.83-1.3Z" transform="translate(-47.15)" style="fill:#162d06"/><path d="M513.42,144.12s1.85.84,5.37-2c3-2.46,7.5.57,9,3.36a1.16,1.16,0,0,1-.74,1.67c-2.43.63-8.06,1.65-13.41-.52,0,0,6.6,3.17-.69,11.67,0,0-1.67,3.68-3.86-.9,0,0-2.85-3.52,3.11-9.88,0,0-3.09-.72-6.61,2.13s-6,3.08-8.39-.74,11.38-5.09,14.59-3.12c0,0-4.69-4.35-7-4.9-1.66-.38-4.14-2.63-5.42-3.88a1.09,1.09,0,0,1,.13-1.67,5.41,5.41,0,0,1,7.32.32,15,15,0,0,1,5.05,8.11s-3-8,3.18-11.9S517.9,140.68,513.42,144.12Z" transform="translate(-47.15)" style="fill:#f7f7f6"/><path d="M512.47,144.71c-.53.33-.54.3-.21.82s.87,1.42,1.4,1.09a1.13,1.13,0,0,0-1.19-1.91Z" transform="translate(-47.15)" style="fill:#162d06"/><path d="M530.45,207s1.84.83,5.36-2c3-2.45,7.51.58,9,3.37a1.16,1.16,0,0,1-.75,1.66c-2.42.63-8.06,1.66-13.41-.51,0,0,6.6,3.17-.68,11.66,0,0-1.68,3.69-3.87-.9,0,0-2.85-3.52,3.12-9.87,0,0-3.1-.72-6.62,2.13s-6,3.08-8.39-.74,11.38-5.09,14.59-3.12c0,0-4.69-4.36-7-4.9-1.66-.39-4.14-2.64-5.42-3.88a1.11,1.11,0,0,1,.13-1.68,5.44,5.44,0,0,1,7.33.33,15,15,0,0,1,5,8.11s-3-8,3.18-11.9S534.92,203.55,530.45,207Z" transform="translate(-47.15)" style="fill:#f7f7f6"/><path d="M529.49,207.59c-.53.33-.54.29-.21.82s.87,1.42,1.4,1.09a1.13,1.13,0,0,0-1.19-1.91Z" transform="translate(-47.15)" style="fill:#162d06"/><path d="M538.82,196.21s1.58.38,3.93-2.41c2-2.41,6-.7,7.65,1.27a.94.94,0,0,1-.33,1.43,17.89,17.89,0,0,1-10.68,1.65s5.7,1.49,1.25,9.33c0,0-.76,3.17-3.19-.12,0,0-2.8-2.35.94-8.29a6.68,6.68,0,0,0-4.9,2.7c-2.34,2.79-4.28,3.36-6.74.71s8.21-5.77,11-4.71c0,0-4.38-2.72-6.29-2.79-1.38,0-3.68-1.45-4.88-2.24a.88.88,0,0,1-.16-1.34,4.38,4.38,0,0,1,5.84-.87,12.07,12.07,0,0,1,5.23,5.63s-3.62-5.89.69-9.89S541.82,192.8,538.82,196.21Z" transform="translate(-47.15)" style="fill:#f7f7f6"/><path d="M538.16,196.83c-.37.34-.39.31,0,.68s.91,1,1.28.64a.91.91,0,0,0,0-1.28A.9.9,0,0,0,538.16,196.83Z" transform="translate(-47.15)" style="fill:#162d06"/><path d="M511.33,195.65s-1.63-1.68-6.62-.08c-4.3,1.37-7.86-3.77-8.33-7.42a1.35,1.35,0,0,1,1.5-1.49c2.89.34,9.39,1.6,14.25,6.19,0,0-5.78-6.19,5.64-12.29,0,0,3.36-3.28,3.79,2.59,0,0,1.6,5-7.51,9.35,0,0,3,2.07,8,.48s7.78-.8,8.74,4.31-14.41.72-17.05-2.76c0,0,3.23,6.67,5.51,8.23,1.63,1.12,3.36,4.58,4.21,6.47a1.27,1.27,0,0,1-.84,1.74,6.27,6.27,0,0,1-7.77-3.42c-3.11-6-2-10.86-2-10.86s-.12,9.94-8.43,11.49S505.07,197.48,511.33,195.65Z" transform="translate(-47.15)" style="fill:#fff"/><path d="M512.61,195.41c.71-.4,1.17-.81,1-1.52a1.31,1.31,0,0,0-1.52-1c-.7.14-.69.73-.56,1.43S512,195.76,512.61,195.41Z" transform="translate(-47.15)" style="fill:#162d06"/><path d="M503,171.64s-1.05-2-6.05-1.86c-4.3.1-6.18-5.57-5.62-9a1.28,1.28,0,0,1,1.78-1c2.54,1.08,8.16,4,11.38,9.51,0,0-3.63-7.23,8.47-9.75,0,0,4-2.09,2.77,3.4,0,0,.12,5-9.39,6.53,0,0,2.22,2.72,7.22,2.61s7.34,1.37,6.84,6.3-13.39-3.23-14.87-7.12c0,0,1.17,7,2.83,9,1.19,1.46,1.84,5.1,2.11,7.06a1.21,1.21,0,0,1-1.24,1.37,6,6,0,0,1-6.18-5.23A16.53,16.53,0,0,1,504.08,173s-2.79,9.07-10.82,8.26S496.74,171.63,503,171.64Z" transform="translate(-47.15)" style="fill:#fff"/><path d="M504.21,171.76c.75-.17,1.29-.42,1.36-1.1a1.23,1.23,0,0,0-1.11-1.36c-.69-.07-.83.47-.9,1.15S503.54,171.92,504.21,171.76Z" transform="translate(-47.15)" style="fill:#162d06"/></g></g></g></g></svg>